<svg id="Layer_1" data-name="Layer 1" xmlns="http://www.w3.org/2000/svg" viewBox="0 0 252 144"><defs><style>.cls-1,.cls-7{fill:#de0001;}.cls-1{stroke:#bc040e;}.cls-1,.cls-2,.cls-6,.cls-7{stroke-miterlimit:10;}.cls-2{fill:#c8651b;stroke:#b74f08;}.cls-3{font-size:25.45px;}.cls-3,.cls-6{font-family:MicrosoftSansSerif, Microsoft Sans Serif;}.cls-4{font-size:12px;font-family:MongolianBaiti, Mongolian Baiti;}.cls-5{letter-spacing:-0.02em;}.cls-6{font-size:9px;stroke:#fff;stroke-width:0.25px;}.cls-7{stroke:#231f20;stroke-linecap:round;}.cls-8{fill:none;}</style></defs><title>Artboard 1</title><polyline class="cls-1" points="95.93 11.41 32.19 57.77 34.32 60.71 98.07 14.36"/><path class="cls-1" d="M91.09,39.65l-11.78,0,0,11.46L63.94,51l0,11.12-14.83,0,0,11.13-15.5,0,0,11.13h-.23c0,4.72,1.61,9.28.79,14h64V47Z"/><polyline class="cls-2" points="20.03 127.63 92.81 127.63 99.45 120.67 99.43 113.6 84.6 113.65 84.56 102.52 69.07 102.57 69.03 91.44 54.2 91.49 54.16 80.37 38.82 80.41 38.78 68.95 27.01 68.99 20.03 76.35"/><polyline class="cls-2" points="23.15 42.48 25.43 39.35 107.11 98.75 104.83 101.88 23.15 42.48"/><text class="cls-3" transform="translate(113.38 54.66) scale(0.87 1)">Brian Hortin</text><text class="cls-4" transform="translate(113.38 72)">BD<tspan class="cls-5" x="16.67" y="0"> </tspan><tspan x="19.45" y="0">WOODWORKS</tspan></text><text class="cls-6" transform="translate(113.38 83.89)">Custom Stairs &amp; Railings</text><text class="cls-6" transform="translate(113.38 113.51)">Call or Text: 801-777-9328<tspan x="0" y="10.8">E-mail: brian.hortin@gmail.com</tspan></text><line class="cls-7" x1="113.38" y1="74.32" x2="213.98" y2="74.32"/><line class="cls-7" x1="113.38" y1="60.71" x2="213.98" y2="60.71"/><path class="cls-8" d="M194.32,0c3.21,2.66,8,5.69,13.55,5.43,5.15-.24,7.14-3.11,11-2.32,5.2,1.07,4.3,6.8,10.06,8.63,5.29,1.69,9.82-1.93,12.75.22.91.66.58,1.08,2.42,6.73,1.24,3.82,1.74,4.72,2.81,5,1.84.58,4.86-.61,5.09-1.89s-2.15-3.39-14.61-7"/></svg>