<?xml version="1.0" encoding="utf-8"?>
<!-- Generator: Adobe Illustrator 23.0.3, SVG Export Plug-In . SVG Version: 6.00 Build 0)  -->
<svg version="1.1" id="Layer_1" xmlns="http://www.w3.org/2000/svg" xmlns:xlink="http://www.w3.org/1999/xlink" x="0px" y="0px"
	 viewBox="0 0 252 144" style="enable-background:new 0 0 252 144;" xml:space="preserve">
<style type="text/css">
	.st0{fill:#DE0001;stroke:#DE0001;stroke-miterlimit:10;}
	.st1{fill:#C8651B;stroke:#C8651B;stroke-miterlimit:10;}
	.st2{fill:#DE0001;stroke:#BC040E;stroke-miterlimit:10;}
	.st3{fill:#C8651B;stroke:#B74F08;stroke-miterlimit:10;}
	.st4{font-family:'MicrosoftSansSerif';}
	.st5{font-size:25.4506px;}
	.st6{font-family:'MongolianBaiti';}
	.st7{font-size:12px;}
	.st8{stroke:#FFFFFF;stroke-width:0.25;stroke-miterlimit:10;}
	.st9{font-size:9px;}
	.st10{fill:#DE0001;stroke:#231F20;stroke-linecap:round;stroke-miterlimit:10;}
	.st11{fill:none;}
</style>
<polyline class="st0" points="73.9,-139.9 43.6,-117.8 44.6,-116.4 75,-138.5 "/>
<path class="st0" d="M71.6-126.4l-5.6,0l0,5.5l-7.3,0l0,5.3l-7.1,0l0,5.3l-7.4,0l0,5.3l-0.1,0c0,2.2,0.8,4.4,0.4,6.7H75v-24.4
	L71.6-126.4z"/>
<polyline class="st1" points="37.8,-84.5 72.4,-84.5 75.6,-87.8 75.6,-91.2 68.5,-91.2 68.5,-96.5 61.1,-96.5 61.1,-101.8 
	54,-101.7 54,-107 46.7,-107 46.7,-112.5 41.1,-112.5 37.8,-109 "/>
<rect x="35.2" y="-112.6" transform="matrix(-0.8088 -0.5881 0.5881 -0.8088 172.8651 -167.1655)" class="st1" width="48.1" height="1.8"/>
<polyline class="st2" points="95.9,11.4 32.2,57.8 34.3,60.7 98.1,14.4 "/>
<path class="st2" d="M91.1,39.6l-11.8,0l0,11.5l-15.3,0l0,11.1l-14.8,0l0,11.1l-15.5,0l0,11.1l-0.2,0c0,4.7,1.6,9.3,0.8,14h64V47
	L91.1,39.6z"/>
<polyline class="st3" points="20,127.6 92.8,127.6 99.5,120.7 99.4,113.6 84.6,113.6 84.6,102.5 69.1,102.6 69,91.4 54.2,91.5 
	54.2,80.4 38.8,80.4 38.8,69 27,69 20,76.3 "/>
<polyline class="st3" points="23.1,42.5 25.4,39.4 107.1,98.7 104.8,101.9 23.1,42.5 "/>
<text transform="matrix(0.7472 0 0 1 93.9785 -109.6439)" class="st6" style="font-size:20.2729px;">BD WOODWORKS</text>
<text transform="matrix(0.9554 0 0 1 93.9785 -92.3843)" class="st8 st4 st7">Custom Stairs &amp; Railings</text>
<text transform="matrix(0.8703 0 0 1 113.3828 54.6646)" class="st4 st5">Brian Hortin</text>
<text transform="matrix(1 0 0 1 113.3834 72)" class="st6 st7">BD WOODWORKS</text>
<text transform="matrix(1 0 0 1 113.3833 83.8934)" class="st8 st4 st9">Custom Stairs &amp; Railings</text>
<text transform="matrix(0.9954 0 0 1 113.3831 113.5104)"><tspan x="0" y="0" class="st8 st4 st9">Call or Text: 801-777-9328</tspan><tspan x="0" y="10.8" class="st8 st4 st9">E-mail: brian.hortin@gmail.com</tspan></text>
<line class="st10" x1="94" y1="-105.7" x2="220.1" y2="-105.7"/>
<line class="st10" x1="113.4" y1="74.3" x2="214" y2="74.3"/>
<line class="st10" x1="94" y1="-126.5" x2="220.1" y2="-126.5"/>
<line class="st10" x1="113.4" y1="60.7" x2="214" y2="60.7"/>
<path class="st11" d="M194.3,0c3.2,2.7,8,5.7,13.6,5.4c5.1-0.2,7.1-3.1,11-2.3c5.2,1.1,4.3,6.8,10.1,8.6c5.3,1.7,9.8-1.9,12.7,0.2
	c0.9,0.7,0.6,1.1,2.4,6.7c1.2,3.8,1.7,4.7,2.8,5.1c1.8,0.6,4.9-0.6,5.1-1.9c0.2-1.3-2.2-3.4-14.6-7.1"/>
<polyline class="st2" points="74.3,-139.9 43.6,-117.5 44.6,-116.1 75.4,-138.5 "/>
<path class="st2" d="M72-126.3l-5.7,0l0,5.5l-7.4,0l0,5.4l-7.2,0l0,5.4l-7.5,0l0,5.4l-0.1,0c0,2.3,0.8,4.5,0.4,6.7h30.9v-24.7
	L72-126.3z"/>
<polyline class="st3" points="37.7,-83.8 72.8,-83.8 76,-87.2 76,-90.6 68.9,-90.6 68.8,-95.9 61.4,-95.9 61.4,-101.3 54.2,-101.3 
	54.2,-106.6 46.8,-106.6 46.8,-112.1 41.1,-112.1 37.7,-108.6 "/>
<polyline class="st3" points="39.2,-124.9 40.3,-126.4 79.7,-97.8 78.6,-96.3 39.2,-124.9 "/>
</svg>
