<svg id="Layer_1" data-name="Layer 1" xmlns="http://www.w3.org/2000/svg" viewBox="0 0 252 144"><defs><style>.cls-1,.cls-6,.cls-7{fill:#de0001;}.cls-1{stroke:#de0001;}.cls-1,.cls-2,.cls-5,.cls-6,.cls-7,.cls-8{stroke-miterlimit:10;}.cls-2,.cls-8{fill:#c8651b;}.cls-2{stroke:#c8651b;}.cls-3{font-size:20.27px;font-family:MongolianBaiti, Mongolian Baiti;}.cls-4{letter-spacing:-0.02em;}.cls-5{font-size:12px;stroke:#fff;stroke-width:0.25px;font-family:MicrosoftSansSerif, Microsoft Sans Serif;}.cls-6{stroke:#231f20;stroke-linecap:round;}.cls-7{stroke:#bc040e;}.cls-8{stroke:#b74f08;}</style></defs><title>Artboard 5</title><polyline class="cls-1" points="73.93 35.62 43.56 57.7 44.58 59.1 74.95 37.02"/><path class="cls-1" d="M71.62,49.07l-5.61,0v5.46l-7.31,0,0,5.3-7.07,0v5.3l-7.39,0v5.3h-.11c0,2.25.77,4.42.37,6.66H75V52.58Z"/><polyline class="cls-2" points="37.77 90.99 72.44 90.99 75.61 87.67 75.6 84.3 68.53 84.33 68.52 79.03 61.13 79.05 61.12 73.75 54.05 73.77 54.03 68.47 46.72 68.49 46.7 63.03 41.09 63.05 37.77 66.56"/><rect class="cls-2" x="35.19" y="62.9" width="48.12" height="1.85" transform="translate(69.64 150.29) rotate(-143.98)"/><text class="cls-3" transform="translate(93.98 65.87) scale(0.75 1)">BD<tspan class="cls-4" x="28.16" y="0"> </tspan><tspan x="32.86" y="0">WOODWORKS</tspan></text><text class="cls-5" transform="translate(93.98 83.13) scale(0.96 1)">Custom Stairs &amp; Railings</text><line class="cls-6" x1="93.98" y1="69.83" x2="220.11" y2="69.83"/><line class="cls-6" x1="93.98" y1="49.05" x2="220.11" y2="49.05"/><polyline class="cls-7" points="74.33 35.62 43.58 57.98 44.61 59.4 75.36 37.03"/><path class="cls-7" d="M72,49.24l-5.67,0,0,5.53-7.4,0,0,5.37-7.15,0,0,5.36-7.48,0v5.37h-.11c0,2.27.77,4.47.38,6.74H75.36V52.79Z"/><polyline class="cls-8" points="37.72 91.67 72.83 91.67 76.03 88.32 76.02 84.91 68.86 84.93 68.85 79.56 61.37 79.59 61.36 74.22 54.2 74.24 54.18 68.88 46.78 68.9 46.77 63.37 41.09 63.39 37.72 66.94"/><polyline class="cls-8" points="39.22 50.6 40.32 49.09 79.72 77.74 78.62 79.25 39.22 50.6"/></svg>